<mxfile host="app.diagrams.net" agent="Mozilla/5.0 (Windows NT 10.0; Win64; x64) AppleWebKit/537.36 (KHTML, like Gecko) Chrome/134.0.0.0 Safari/537.36" version="26.1.1">
  <diagram name="Page-1" id="uwJXxpfS16Cd_lnGsXoX">
    <mxGraphModel dx="1646" dy="951" grid="0" gridSize="10" guides="1" tooltips="1" connect="1" arrows="1" fold="1" page="0" pageScale="1" pageWidth="827" pageHeight="1169" math="0" shadow="0">
      <root>
        <mxCell id="0" />
        <mxCell id="1" parent="0" />
        <mxCell id="P_m3Yzzx6De8Q_QXUixc-3" value="" style="rounded=0;whiteSpace=wrap;html=1;fontFamily=Architects Daughter;fontSource=https%3A%2F%2Ffonts.googleapis.com%2Fcss%3Ffamily%3DArchitects%2BDaughter;dashed=1;" vertex="1" parent="1">
          <mxGeometry x="-116" y="24" width="296" height="268" as="geometry" />
        </mxCell>
        <mxCell id="P_m3Yzzx6De8Q_QXUixc-4" value="" style="rounded=0;whiteSpace=wrap;html=1;fontFamily=Architects Daughter;fontSource=https%3A%2F%2Ffonts.googleapis.com%2Fcss%3Ffamily%3DArchitects%2BDaughter;dashed=1;" vertex="1" parent="1">
          <mxGeometry x="270.5" y="24" width="259" height="268" as="geometry" />
        </mxCell>
        <mxCell id="P_m3Yzzx6De8Q_QXUixc-20" value="" style="rounded=0;whiteSpace=wrap;html=1;fontFamily=Architects Daughter;fontSource=https%3A%2F%2Ffonts.googleapis.com%2Fcss%3Ffamily%3DArchitects%2BDaughter;dashed=1;" vertex="1" parent="1">
          <mxGeometry x="-7" y="71" width="462" height="174" as="geometry" />
        </mxCell>
        <mxCell id="P_m3Yzzx6De8Q_QXUixc-23" value="" style="rounded=0;whiteSpace=wrap;html=1;fontFamily=Architects Daughter;fontSource=https%3A%2F%2Ffonts.googleapis.com%2Fcss%3Ffamily%3DArchitects%2BDaughter;dashed=1;" vertex="1" parent="1">
          <mxGeometry x="3" y="81" width="442" height="122" as="geometry" />
        </mxCell>
        <mxCell id="P_m3Yzzx6De8Q_QXUixc-14" style="edgeStyle=none;curved=1;rounded=0;orthogonalLoop=1;jettySize=auto;html=1;entryX=0;entryY=0.5;entryDx=0;entryDy=0;fontFamily=Architects Daughter;fontSource=https%3A%2F%2Ffonts.googleapis.com%2Fcss%3Ffamily%3DArchitects%2BDaughter;fontSize=16;startSize=8;endArrow=classic;endSize=8;sourcePerimeterSpacing=8;targetPerimeterSpacing=8;startArrow=classic;startFill=1;endFill=1;exitX=1;exitY=0.5;exitDx=0;exitDy=0;" edge="1" parent="1">
          <mxGeometry relative="1" as="geometry">
            <mxPoint x="180" y="56" as="sourcePoint" />
            <mxPoint x="270.5" y="56" as="targetPoint" />
          </mxGeometry>
        </mxCell>
        <mxCell id="P_m3Yzzx6De8Q_QXUixc-1" value="" style="image;aspect=fixed;html=1;points=[];align=center;fontSize=12;image=img/lib/azure2/databases/Azure_SQL_VM.svg;fontFamily=Architects Daughter;fontSource=https%3A%2F%2Ffonts.googleapis.com%2Fcss%3Ffamily%3DArchitects%2BDaughter;" vertex="1" parent="1">
          <mxGeometry x="22" y="106" width="64" height="60" as="geometry" />
        </mxCell>
        <mxCell id="P_m3Yzzx6De8Q_QXUixc-2" value="" style="image;aspect=fixed;html=1;points=[];align=center;fontSize=12;image=img/lib/azure2/databases/Azure_SQL_VM.svg;fontFamily=Architects Daughter;fontSource=https%3A%2F%2Ffonts.googleapis.com%2Fcss%3Ffamily%3DArchitects%2BDaughter;" vertex="1" parent="1">
          <mxGeometry x="366" y="106" width="64" height="60" as="geometry" />
        </mxCell>
        <mxCell id="P_m3Yzzx6De8Q_QXUixc-5" value="" style="verticalLabelPosition=bottom;html=1;verticalAlign=top;align=center;strokeColor=none;fillColor=#00BEF2;shape=mxgraph.azure.virtual_network;pointerEvents=1;fontFamily=Architects Daughter;fontSource=https%3A%2F%2Ffonts.googleapis.com%2Fcss%3Ffamily%3DArchitects%2BDaughter;" vertex="1" parent="1">
          <mxGeometry x="143" y="14" width="35" height="19.5" as="geometry" />
        </mxCell>
        <mxCell id="P_m3Yzzx6De8Q_QXUixc-6" value="" style="verticalLabelPosition=bottom;html=1;verticalAlign=top;align=center;strokeColor=none;fillColor=#00BEF2;shape=mxgraph.azure.virtual_network;pointerEvents=1;fontFamily=Architects Daughter;fontSource=https%3A%2F%2Ffonts.googleapis.com%2Fcss%3Ffamily%3DArchitects%2BDaughter;" vertex="1" parent="1">
          <mxGeometry x="489" y="14" width="35" height="19.5" as="geometry" />
        </mxCell>
        <mxCell id="P_m3Yzzx6De8Q_QXUixc-7" value="" style="image;aspect=fixed;html=1;points=[];align=center;fontSize=12;image=img/lib/azure2/compute/Virtual_Machine.svg;fontFamily=Architects Daughter;fontSource=https%3A%2F%2Ffonts.googleapis.com%2Fcss%3Ffamily%3DArchitects%2BDaughter;" vertex="1" parent="1">
          <mxGeometry x="-101" y="29.06" width="56" height="51.94" as="geometry" />
        </mxCell>
        <mxCell id="P_m3Yzzx6De8Q_QXUixc-8" value="" style="image;aspect=fixed;html=1;points=[];align=center;fontSize=12;image=img/lib/azure2/other/VM_Application_Definition.svg;fontFamily=Architects Daughter;fontSource=https%3A%2F%2Ffonts.googleapis.com%2Fcss%3Ffamily%3DArchitects%2BDaughter;" vertex="1" parent="1">
          <mxGeometry x="-100" y="209" width="55" height="50.79" as="geometry" />
        </mxCell>
        <mxCell id="P_m3Yzzx6De8Q_QXUixc-9" value="Domain Controller&amp;nbsp;" style="text;html=1;align=center;verticalAlign=middle;whiteSpace=wrap;rounded=0;fontFamily=Georgia;" vertex="1" parent="1">
          <mxGeometry x="-100" y="91" width="60" height="30" as="geometry" />
        </mxCell>
        <mxCell id="P_m3Yzzx6De8Q_QXUixc-10" value="Primary SQL Server" style="text;html=1;align=center;verticalAlign=middle;whiteSpace=wrap;rounded=0;fontFamily=Georgia;" vertex="1" parent="1">
          <mxGeometry x="22" y="173" width="64" height="30" as="geometry" />
        </mxCell>
        <mxCell id="P_m3Yzzx6De8Q_QXUixc-11" value="Application Server" style="text;html=1;align=center;verticalAlign=middle;whiteSpace=wrap;rounded=0;fontFamily=Georgia;" vertex="1" parent="1">
          <mxGeometry x="-104.5" y="262" width="64" height="30" as="geometry" />
        </mxCell>
        <mxCell id="P_m3Yzzx6De8Q_QXUixc-12" value="High Availability / DR&amp;nbsp;" style="text;html=1;align=center;verticalAlign=middle;whiteSpace=wrap;rounded=0;fontFamily=Georgia;" vertex="1" parent="1">
          <mxGeometry x="275" y="33.5" width="141" height="30" as="geometry" />
        </mxCell>
        <mxCell id="P_m3Yzzx6De8Q_QXUixc-13" value="Secondry SQL Server" style="text;html=1;align=center;verticalAlign=middle;whiteSpace=wrap;rounded=0;fontFamily=Georgia;" vertex="1" parent="1">
          <mxGeometry x="370" y="173" width="64" height="30" as="geometry" />
        </mxCell>
        <mxCell id="P_m3Yzzx6De8Q_QXUixc-15" value="VNet Pairing" style="text;html=1;align=center;verticalAlign=middle;whiteSpace=wrap;rounded=0;fontFamily=Georgia;" vertex="1" parent="1">
          <mxGeometry x="192" y="22" width="64" height="30" as="geometry" />
        </mxCell>
        <mxCell id="P_m3Yzzx6De8Q_QXUixc-16" value="Primary VNet" style="text;html=1;align=center;verticalAlign=middle;whiteSpace=wrap;rounded=0;fontFamily=Georgia;" vertex="1" parent="1">
          <mxGeometry x="43" y="-6" width="105" height="30" as="geometry" />
        </mxCell>
        <mxCell id="P_m3Yzzx6De8Q_QXUixc-17" value="Secondry VNet" style="text;html=1;align=center;verticalAlign=middle;whiteSpace=wrap;rounded=0;fontFamily=Georgia;" vertex="1" parent="1">
          <mxGeometry x="384" y="-6" width="105" height="30" as="geometry" />
        </mxCell>
        <mxCell id="P_m3Yzzx6De8Q_QXUixc-18" style="edgeStyle=none;curved=1;rounded=0;orthogonalLoop=1;jettySize=auto;html=1;entryX=0.052;entryY=0.344;entryDx=0;entryDy=0;entryPerimeter=0;fontFamily=Architects Daughter;fontSource=https%3A%2F%2Ffonts.googleapis.com%2Fcss%3Ffamily%3DArchitects%2BDaughter;fontSize=16;startSize=8;endArrow=classic;endSize=8;sourcePerimeterSpacing=8;targetPerimeterSpacing=8;exitX=1.01;exitY=0.31;exitDx=0;exitDy=0;exitPerimeter=0;endFill=1;startArrow=classic;startFill=1;dashed=1;" edge="1" parent="1" source="P_m3Yzzx6De8Q_QXUixc-1" target="P_m3Yzzx6De8Q_QXUixc-2">
          <mxGeometry relative="1" as="geometry" />
        </mxCell>
        <mxCell id="P_m3Yzzx6De8Q_QXUixc-19" value="Async/Sync Commit" style="text;html=1;align=center;verticalAlign=middle;whiteSpace=wrap;rounded=0;fontFamily=Georgia;" vertex="1" parent="1">
          <mxGeometry x="163.5" y="101" width="125" height="30" as="geometry" />
        </mxCell>
        <mxCell id="P_m3Yzzx6De8Q_QXUixc-21" value="Window Server Failover Cluster Group" style="text;html=1;align=center;verticalAlign=middle;whiteSpace=wrap;rounded=0;fontFamily=Georgia;" vertex="1" parent="1">
          <mxGeometry x="158" y="212" width="125" height="30" as="geometry" />
        </mxCell>
        <mxCell id="P_m3Yzzx6De8Q_QXUixc-24" value="SQL Server High Availability Group" style="text;html=1;align=center;verticalAlign=middle;whiteSpace=wrap;rounded=0;fontFamily=Georgia;" vertex="1" parent="1">
          <mxGeometry x="156" y="166" width="125" height="30" as="geometry" />
        </mxCell>
        <mxCell id="P_m3Yzzx6De8Q_QXUixc-25" value="" style="edgeStyle=none;orthogonalLoop=1;jettySize=auto;html=1;rounded=0;fontFamily=Architects Daughter;fontSource=https%3A%2F%2Ffonts.googleapis.com%2Fcss%3Ffamily%3DArchitects%2BDaughter;fontSize=16;startSize=14;endArrow=classic;endSize=8;sourcePerimeterSpacing=8;targetPerimeterSpacing=8;curved=0;entryX=0.488;entryY=-0.038;entryDx=0;entryDy=0;entryPerimeter=0;exitX=-0.002;exitY=0.577;exitDx=0;exitDy=0;exitPerimeter=0;endFill=1;" edge="1" parent="1" source="P_m3Yzzx6De8Q_QXUixc-23" target="P_m3Yzzx6De8Q_QXUixc-8">
          <mxGeometry width="140" relative="1" as="geometry">
            <mxPoint x="24" y="194" as="sourcePoint" />
            <mxPoint x="164" y="194" as="targetPoint" />
            <Array as="points">
              <mxPoint x="-73" y="151" />
            </Array>
          </mxGeometry>
        </mxCell>
        <mxCell id="P_m3Yzzx6De8Q_QXUixc-26" value="SQL Listener" style="text;html=1;align=center;verticalAlign=middle;whiteSpace=wrap;rounded=0;fontFamily=Georgia;" vertex="1" parent="1">
          <mxGeometry x="-80" y="155" width="64" height="30" as="geometry" />
        </mxCell>
      </root>
    </mxGraphModel>
  </diagram>
</mxfile>
